<?xml version="1.0" encoding="UTF-8"?>
<svg xmlns="http://www.w3.org/2000/svg" xmlns:xlink="http://www.w3.org/1999/xlink" width="5120" height="2880" viewBox="0 0 5120 2880">
<defs>
<clipPath id="clip-0">

</clipPath>
<clipPath id="clip-1">
<path clip-rule="evenodd" d="M 2559.449219 1420.488281 C 2343.929688 1420.488281 2169.210938 1245.769531 2169.210938 1030.238281 C 2169.210938 814.71875 2343.929688 640 2559.449219 640 C 2774.980469 640 2949.699219 814.71875 2949.699219 1030.238281 C 2949.699219 1245.769531 2774.980469 1420.488281 2559.449219 1420.488281 Z M 2559.449219 1420.488281 "/>
</clipPath>
<clipPath id="clip-2">
<path clip-rule="nonzero" d="M 1850 1615 L 3269 1615 L 3269 2240 L 1850 2240 Z M 1850 1615 "/>
</clipPath>
<clipPath id="clip-3">
<path clip-rule="nonzero" d="M 1850 2200.976562 C 1850 2222.828125 1867.171875 2240 1889.019531 2240 L 3229.898438 2240 C 3251.761719 2240 3268.929688 2222.828125 3268.929688 2200.976562 C 3268.929688 1877.851562 2950.488281 1615.609375 2559.460938 1615.609375 C 2168.441406 1615.609375 1850 1877.851562 1850 2200.976562 Z M 1850 2200.976562 "/>
</clipPath>
</defs>

<g clip-path="url(#clip-0)">
<g clip-path="url(#clip-1)">
<path fill-rule="nonzero" fill="rgb(25.489807%, 25.489807%, 25.489807%)" fill-opacity="1" d="M 2167.210938 1422.488281 L 2951.699219 1422.488281 L 2951.699219 638.003906 L 2167.210938 638.003906 Z M 2167.210938 1422.488281 "/>
</g>
</g>
<g clip-path="url(#clip-2)">
<g clip-path="url(#clip-3)">
<path fill-rule="nonzero" fill="rgb(25.489807%, 25.489807%, 25.489807%)" fill-opacity="1" d="M 1848 2242 L 3270.929688 2242 L 3270.929688 1613.609375 L 1848 1613.609375 Z M 1848 2242 "/>
</g>
</g>
</svg>
